<?xml version="1.0" encoding="UTF-8"?>
<svg id="Capa_1" xmlns="http://www.w3.org/2000/svg" version="1.1" viewBox="0 0 1920 666.45">
  <!-- Generator: Adobe Illustrator 30.3.0, SVG Export Plug-In . SVG Version: 2.1.3 Build 182)  -->
  <defs>
    <style>
      .st0 {
        fill: #fff;
      }
    </style>
  </defs>
  <g>
    <path class="st0" d="M14.95,645.38l102.42-160.69L22.01,328.71h117.13l52.97,100.65,52.97-100.65h106.54l-93.59,160.1,101.24,156.57h-114.78l-59.45-103.59-57.09,103.59H14.95Z"/>
    <path class="st0" d="M338.09,486.45c0-94.76,68.28-163.63,162.45-163.63,104.77,0,174.81,85.35,156.57,189.53h-214.84c5.3,40.03,24.13,60.04,56.51,60.04,28.25,0,47.09-11.77,55.92-34.73h100.65c-19.42,72.4-75.34,113.01-154.21,113.01-97.71,0-163.04-65.92-163.04-164.22ZM443.44,449.37h105.95c-1.18-31.78-21.19-52.38-51.21-52.38s-47.68,17.07-54.74,52.38Z"/>
    <path class="st0" d="M783.06,645.38h-100.65v-316.66h92.41v38.26c24.72-27.66,54.15-44.14,94.18-44.14,62.39,0,106.54,41.79,106.54,118.9v203.65h-100.65v-170.1c0-40.02-14.13-61.8-44.73-61.8-24.72,0-47.09,17.66-47.09,65.33v166.57Z"/>
    <path class="st0" d="M1136.21,322.83c32.96,0,61.21,11.77,85.94,35.32v-135.38h100.65v422.61h-92.41v-35.9c-25.9,27.08-57.09,41.79-94.18,41.79-85.35,0-141.26-73.57-141.26-164.22s55.92-164.22,141.26-164.22ZM1160.34,560.62c31.2,0,60.63-24.13,60.63-74.16s-30.02-72.99-60.63-72.99-60.63,22.96-60.63,73.57,30.02,73.57,60.63,73.57Z"/>
    <path class="st0" d="M1345.16,487.04c0-90.64,71.81-164.22,165.4-164.22s165.4,73.57,165.4,164.22-71.81,164.22-165.4,164.22-165.4-73.57-165.4-164.22ZM1571.18,487.04c0-49.44-29.43-73.57-60.63-73.57s-60.62,24.13-60.62,73.57,29.43,74.16,60.62,74.16,60.63-24.72,60.63-74.16Z"/>
    <path class="st0" d="M1798.96,645.38h-100.65v-316.66h92.41v55.91c24.13-37.08,74.16-58.27,124.78-58.27v104.77c-71.22-7.06-116.54-1.77-116.54,68.28v145.97Z"/>
  </g>
  <g>
    <path class="st0" d="M43.02,270.95c-22.61,0-38.51-15.88-38.51-38.48-.01-22.96,15.87-38.86,38.48-38.87,22.61,0,38.16,15.88,38.17,38.84,0,22.61-15.53,38.51-38.13,38.52Z"/>
    <path class="st0" d="M208.67,262.4c-13.42,7.42-26.14,10.25-43.09,10.26-42.74.02-67.83-25.4-67.84-68.85l-.03-72.05-35.32.02-.02-52.63,35.32-.02-.02-55.81,60.4-.02.02,55.81,51.92-.02.02,52.63-51.92.02.02,57.93c0,18.37,7.78,26.84,24.38,26.83,9.89,0,19.43-2.48,26.14-6.72l.02,52.63Z"/>
    <path class="st0" d="M283.19,269.08l-60.4.02-.08-190.03,55.45-.02.02,33.56c14.47-22.26,44.49-34.99,74.86-35l.03,62.87c-42.74-4.22-69.93-1.03-69.92,41l.04,87.6Z"/>
    <path class="st0" d="M473.55,250.63c-13.42,15.19-30.01,21.91-54.39,21.92-39.56.02-66.06-23.64-66.07-59.66-.02-37.09,30-57.23,84.39-57.26,10.24,0,19.78.7,27.91,2.11v-9.18c-.01-16.6-9.55-25.78-26.51-25.77-16.6,0-26.49,9.19-28.6,25.8l-54.39.02c3.51-44.15,36.35-73.13,83.33-73.15,52.28-.02,83.01,28.22,83.03,76.26l.05,117.26-48.74.02v-18.37ZM433.27,230.87c20.13,0,32.14-9.55,32.13-25.09v-12.01c-9.19-1.76-16.25-2.47-24.02-2.46-20.48,0-31.43,6.72-31.43,19.79,0,12.36,8.48,19.78,23.32,19.77Z"/>
    <path class="st0" d="M653.33,268.93l-67.11.03-68.96-190,65.7-.03,38.2,121.49,38.8-121.52,61.46-.03-68.09,190.05Z"/>
    <path class="st0" d="M706.26,173.54c-.02-56.87,40.93-98.21,97.45-98.23,62.87-.03,104.92,51.17,94,113.69l-128.92.05c3.19,24.02,14.5,36.02,33.92,36.01,16.95,0,28.25-7.08,33.54-20.85l60.4-.03c-11.64,43.45-45.18,67.84-92.51,67.85-58.63.02-97.85-39.52-97.88-98.5ZM769.48,151.26l63.58-.03c-.71-19.07-12.73-31.43-30.74-31.42-18.01,0-28.61,10.25-32.83,31.45Z"/>
    <path class="st0" d="M912.91,268.82l-.11-253.6,61.1-.03.11,253.6-61.1.03Z"/>
  </g>
</svg>